<svg xmlns="http://www.w3.org/2000/svg" xmlns:xlink="http://www.w3.org/1999/xlink" id="Layer_1" x="0" y="0" version="1.1" viewBox="0 0 911.8 639.5" xml:space="preserve" style="enable-background:new 0 0 911.8 639.5"><style type="text/css">.st2040{fill:none;stroke:#595959;stroke-width:.75;stroke-miterlimit:10;stroke-dasharray:4,2}.st2041{fill:#595959}.st2042{fill:#fff;stroke:#919191;stroke-miterlimit:10}.st2043{fill:#c8e3ed}.st2044{fill:#487b9b}.st2045{fill:#fff;stroke:#c22e4a;stroke-width:2.5;stroke-miterlimit:10}.st2046{fill:#ceedf2}.st2047{fill:#6daabc}.st2048{fill:#9ad5d8}.st2049{fill:#629ea8}.st2050{fill:#fff;stroke:#b7b7b7;stroke-width:.5;stroke-miterlimit:10}</style><g><g><line x1="359.2" x2="451.5" y1="283.8" y2="283.8" class="st2040"/><g><polygon points="360 286.6 355.2 283.8 360 281" class="st2041"/></g><g><polygon points="450.7 286.6 455.5 283.8 450.7 281" class="st2041"/></g></g></g><rect width="123.2" height="41.2" x="231.9" y="263.2" class="st2042"/><g><path d="M266.8,288.4h-1.2l-1-2.5h-4.4l-1,2.5H258l3.7-9.1h1.4L266.8,288.4z M260.6,284.8h3.5l-1.8-4.4L260.6,284.8z"/><path d="M274.5,285.3c0,1.9-1.4,3.2-3.1,3.2c-1,0-1.7-0.4-2.2-1v3.4h-1.1v-8.8h1.1v0.8c0.5-0.6,1.2-1,2.2-1 C273.1,282.1,274.5,283.4,274.5,285.3z M269.1,285.3c0,1.3,0.9,2.2,2.1,2.2c1.3,0,2.1-1,2.1-2.2s-0.9-2.2-2.1-2.2 C270,283.1,269.1,284,269.1,285.3z"/><path d="M282.6,285.3c0,1.9-1.4,3.2-3.1,3.2c-1,0-1.7-0.4-2.2-1v3.4h-1.1v-8.8h1.1v0.8c0.5-0.6,1.2-1,2.2-1 C281.2,282.1,282.6,283.4,282.6,285.3z M277.2,285.3c0,1.3,0.9,2.2,2.1,2.2c1.3,0,2.1-1,2.1-2.2s-0.9-2.2-2.1-2.2 C278.1,283.1,277.2,284,277.2,285.3z"/><path d="M285.4,288.4h-1.1V279h1.1V288.4z"/><path d="M288.9,280c0,0.4-0.3,0.7-0.8,0.7c-0.4,0-0.7-0.3-0.7-0.7c0-0.4,0.3-0.8,0.7-0.8C288.6,279.3,288.9,279.6,288.9,280z M288.7,288.4h-1.1v-6.2h1.1V288.4z"/><path d="M296,283l-0.7,0.7c-0.5-0.4-1-0.7-1.6-0.7c-1.2,0-2.1,0.9-2.1,2.2c0,1.3,0.9,2.2,2.1,2.2c0.7,0,1.2-0.3,1.7-0.7l0.7,0.7 c-0.6,0.6-1.4,1-2.3,1c-1.9,0-3.2-1.4-3.2-3.2s1.3-3.2,3.2-3.2C294.6,282.1,295.4,282.4,296,283z"/><path d="M303.4,288.4h-1.1v-0.8c-0.5,0.6-1.2,1-2.2,1c-1.7,0-3.1-1.4-3.1-3.2s1.4-3.2,3.1-3.2c1,0,1.7,0.4,2.2,1v-0.8h1.1V288.4z M298.1,285.3c0,1.2,0.9,2.2,2.1,2.2c1.2,0,2.1-1,2.1-2.2c0-1.3-0.9-2.2-2.1-2.2C299,283.1,298.1,284,298.1,285.3z"/><path d="M309.8,283.2h-2.6v3c0,0.9,0.5,1.3,1.2,1.3c0.5,0,0.9-0.2,1.3-0.4l0.5,0.8c-0.5,0.3-1.1,0.6-1.9,0.6 c-1.3,0-2.1-0.7-2.1-2.3v-3h-1.3v-1h1.3v-1.9h1.1v1.9h2.6V283.2z"/><path d="M312.8,280c0,0.4-0.3,0.7-0.8,0.7c-0.4,0-0.7-0.3-0.7-0.7c0-0.4,0.3-0.8,0.7-0.8C312.5,279.3,312.8,279.6,312.8,280z M312.6,288.4h-1.1v-6.2h1.1V288.4z"/><path d="M320.9,285.3c0,1.8-1.4,3.2-3.3,3.2s-3.3-1.4-3.3-3.2s1.4-3.2,3.3-3.2S320.9,283.4,320.9,285.3z M315.4,285.3 c0,1.3,0.9,2.2,2.2,2.2c1.2,0,2.2-0.9,2.2-2.2c0-1.3-0.9-2.2-2.2-2.2C316.4,283.1,315.4,284,315.4,285.3z"/><path d="M328.3,284.5v3.8h-1.1v-3.5c0-1.1-0.6-1.8-1.7-1.8c-1,0-1.8,0.7-1.8,1.8v3.5h-1.1v-6.2h1.1v0.8c0.5-0.7,1.3-0.9,2-0.9 C327.3,282.1,328.3,283,328.3,284.5z"/></g><g><path d="M395.5,274.6c-0.5-0.3-1.2-0.6-1.9-0.6c-0.7,0-1.3,0.3-1.3,0.8c0,0.5,0.6,0.6,1.4,0.8l0.4,0.1c1.2,0.2,2.1,0.7,2.1,1.9 c0,1.5-1.3,2.2-2.7,2.2c-1,0-2.1-0.3-2.8-0.9l0.7-1.1c0.5,0.4,1.3,0.7,2.1,0.7c0.7,0,1.3-0.3,1.3-0.8c0-0.5-0.5-0.6-1.4-0.8 l-0.4-0.1c-1.2-0.2-2-0.7-2-1.9c0-1.4,1.2-2.1,2.6-2.1c0.9,0,1.7,0.2,2.5,0.7L395.5,274.6z"/><path d="M401.5,274.8c0,0.7-0.4,1.2-1,1.5c0.7,0.3,1.1,0.8,1.1,1.5c0,1.3-1.2,1.9-2.4,1.9c-1,0-1.8-0.4-2.3-1l0.8-0.8 c0.4,0.4,0.9,0.6,1.5,0.6c0.6,0,1.2-0.3,1.2-0.9c0-0.6-0.6-0.9-1.3-0.9h-0.8v-1.1h0.8c0.6,0,1.2-0.3,1.2-0.8c0-0.5-0.5-0.8-1.1-0.8 c-0.6,0-1.1,0.3-1.3,0.7l-0.8-0.8c0.4-0.6,1.2-1,2.2-1C400.6,272.8,401.5,273.6,401.5,274.8z"/><path d="M411.2,279.6h-1.4l-0.6-1.5h-2.8l-0.6,1.5h-1.4l2.6-6.6h1.6L411.2,279.6z M406.8,276.8h1.9l-1-2.6L406.8,276.8z"/><path d="M413.4,277.2v2.4h-1.3V273h2.7c1.6,0,2.4,0.8,2.4,2.1c0,1.3-0.8,2.1-2.4,2.1H413.4z M413.4,274.2v1.8h1.4 c0.7,0,1.1-0.3,1.1-0.9c0-0.6-0.4-0.9-1.1-0.9H413.4z"/><path d="M419.7,279.6h-1.3V273h1.3V279.6z"/></g><g><g><path d="M696.5,197c-0.5-0.3-1.2-0.6-1.9-0.6c-0.7,0-1.3,0.3-1.3,0.8c0,0.5,0.6,0.6,1.4,0.8l0.4,0.1c1.2,0.2,2.1,0.7,2.1,1.9 c0,1.5-1.3,2.2-2.7,2.2c-1,0-2.1-0.3-2.8-0.9l0.7-1.1c0.5,0.4,1.3,0.7,2.1,0.7c0.7,0,1.3-0.3,1.3-0.8c0-0.5-0.5-0.6-1.4-0.8 l-0.4-0.1c-1.2-0.2-2-0.7-2-1.9c0-1.4,1.2-2.1,2.6-2.1c0.9,0,1.7,0.2,2.5,0.7L696.5,197z"/><path d="M702.6,197.1c0,0.7-0.4,1.2-1,1.5c0.7,0.3,1.1,0.8,1.1,1.5c0,1.3-1.2,1.9-2.4,1.9c-1,0-1.8-0.4-2.3-1l0.8-0.8 c0.4,0.4,0.9,0.6,1.5,0.6c0.6,0,1.2-0.3,1.2-0.9c0-0.6-0.6-0.9-1.3-0.9h-0.8V198h0.8c0.6,0,1.2-0.3,1.2-0.8c0-0.5-0.5-0.8-1.1-0.8 s-1.1,0.3-1.3,0.7l-0.8-0.8c0.4-0.6,1.2-1,2.2-1C701.6,195.2,702.6,195.9,702.6,197.1z"/><path d="M709,195.3c1.5,0,2.5,0.6,2.5,1.8c0,0.7-0.4,1.2-1,1.4c0.6,0.2,1.1,0.8,1.1,1.5c0,1.3-0.9,1.9-2.5,1.9h-2.9v-6.6H709z M707.6,196.4v1.6h1.4c0.7,0,1.2-0.1,1.2-0.8c0-0.6-0.5-0.8-1.2-0.8H707.6z M707.6,199.2v1.6l1.5,0c0.7,0,1.2-0.2,1.2-0.8 c0-0.6-0.5-0.8-1.2-0.8H707.6z"/><path d="M717.3,201.9H716v-0.5c-0.3,0.4-0.7,0.6-1.4,0.6c-1.3,0-2.2-1-2.2-2.4c0-1.4,1-2.4,2.2-2.4c0.6,0,1.1,0.3,1.4,0.6v-0.5 h1.2V201.9z M713.7,199.6c0,0.7,0.5,1.3,1.2,1.3c0.7,0,1.2-0.5,1.2-1.3s-0.5-1.3-1.2-1.3C714.2,198.4,713.7,198.9,713.7,199.6z"/><path d="M722.6,198.1l-0.9,0.7c-0.3-0.3-0.6-0.5-1-0.5c-0.6,0-1.2,0.5-1.2,1.3c0,0.8,0.5,1.3,1.1,1.3c0.4,0,0.7-0.2,1-0.5l0.9,0.8 c-0.4,0.6-1.1,0.9-1.8,0.9c-1.5,0-2.4-1-2.4-2.4c0-1.4,1-2.4,2.4-2.4C721.5,197.2,722.1,197.5,722.6,198.1z"/><path d="M724.7,199h0.4l1.3-1.6h1.5l-1.8,2.2l1.8,2.4h-1.5l-1.3-1.9h-0.4v1.9h-1.2v-6.8h1.2V199z"/><path d="M732.7,199.6c0,0.1,0,0.3,0,0.4h-3.3c0.1,0.7,0.6,1,1.2,1c0.4,0,0.8-0.2,1.2-0.4l0.7,0.8c-0.5,0.5-1.2,0.7-2,0.7 c-1.4,0-2.4-1-2.4-2.4c0-1.4,0.9-2.4,2.3-2.4C731.8,197.2,732.7,198.2,732.7,199.6z M729.4,199.2h2c-0.1-0.6-0.5-0.9-1-0.9 C729.9,198.3,729.5,198.6,729.4,199.2z"/><path d="M738.1,199v2.9h-1.2v-2.5c0-0.7-0.3-1-0.9-1c-0.5,0-1,0.3-1,1v2.5h-1.2v-4.6h1.2v0.5c0.3-0.5,0.8-0.7,1.4-0.7 C737.3,197.2,738.1,197.9,738.1,199z"/><path d="M742.6,197.8v-2.7h1.2v6.8h-1.2v-0.5c-0.3,0.4-0.7,0.6-1.4,0.6c-1.3,0-2.2-1-2.2-2.4c0-1.4,1-2.4,2.2-2.4 C741.9,197.2,742.3,197.4,742.6,197.8z M740.3,199.6c0,0.7,0.5,1.3,1.2,1.3c0.7,0,1.2-0.5,1.2-1.3s-0.5-1.3-1.2-1.3 C740.8,198.4,740.3,198.9,740.3,199.6z"/><path d="M748.5,198.6c-0.4-0.2-0.9-0.4-1.5-0.4c-0.5,0-0.7,0.2-0.7,0.4c0,0.3,0.3,0.3,0.7,0.4l0.4,0.1c1,0.2,1.6,0.6,1.6,1.4 c0,0.9-0.8,1.6-2.1,1.6c-0.6,0-1.4-0.1-2-0.5l0.5-0.9c0.4,0.3,0.9,0.5,1.6,0.5c0.6,0,0.8-0.2,0.8-0.4c0-0.2-0.2-0.3-0.8-0.4 l-0.4-0.1c-1.1-0.1-1.6-0.6-1.6-1.4c0-0.9,0.7-1.5,1.9-1.5c0.7,0,1.3,0.1,1.9,0.4L748.5,198.6z"/></g></g><g><g><path d="M720.3,254c-23.4,0-39.2-3.6-39.2-7.1v-28h78.4v28C759.5,250.4,743.8,254,720.3,254z" class="st2043"/><path d="M759.1,219.3V247c0,1.1-2.9,3-11,4.5c-7.4,1.4-17.3,2.2-27.8,2.2s-20.4-0.8-27.8-2.2 c-8.1-1.5-11-3.4-11-4.5v-27.6H759.1 M759.9,218.6h-79.2V247c0,4.1,17.7,7.4,39.6,7.4c21.9,0,39.6-3.3,39.6-7.4V218.6L759.9,218.6 z" class="st2044"/></g><g><path d="M720.3,225.7c-23.4,0-39.2-3.6-39.2-7.1s15.8-7.1,39.2-7.1s39.2,3.6,39.2,7.1S743.8,225.7,720.3,225.7z" class="st2043"/><path d="M720.3,211.9c10.5,0,20.4,0.8,27.8,2.2c8.1,1.5,11,3.4,11,4.5s-2.9,3-11,4.5c-7.4,1.4-17.3,2.2-27.8,2.2 s-20.4-0.8-27.8-2.2c-8.1-1.5-11-3.4-11-4.5s2.9-3,11-4.5C699.9,212.7,709.8,211.9,720.3,211.9 M720.3,211.2 c-21.9,0-39.6,3.3-39.6,7.4c0,4.1,17.7,7.4,39.6,7.4c21.9,0,39.6-3.3,39.6-7.4C759.9,214.5,742.2,211.2,720.3,211.2L720.3,211.2z" class="st2044"/></g></g><g><path d="M703,235.1c1.6,0,2.5,0.7,2.5,2c0,1.2-0.9,2-2.4,2H703l2.5,3h-1.1l-2.4-3h-0.8v3h-0.9v-7H703z M701.1,235.9v2.4h1.9 c1,0,1.6-0.4,1.6-1.2c0-0.8-0.5-1.2-1.6-1.2H701.1z"/><path d="M711,239.7c0,0.1,0,0.2,0,0.3h-3.7c0.1,1,0.8,1.5,1.6,1.5c0.6,0,1.1-0.2,1.5-0.6l0.4,0.6c-0.6,0.6-1.3,0.7-2,0.7 c-1.4,0-2.4-1-2.4-2.5c0-1.5,1-2.5,2.4-2.5C710,237.2,711,238.2,711,239.7z M707.2,239.3h2.9c-0.1-0.8-0.6-1.4-1.4-1.4 C707.9,238,707.4,238.5,707.2,239.3z"/><path d="M720.2,239.1v3h-0.8v-2.7c0-0.9-0.5-1.4-1.3-1.4c-0.8,0-1.4,0.5-1.4,1.4v2.7h-0.8v-2.7c0-0.9-0.5-1.4-1.3-1.4 c-0.8,0-1.4,0.5-1.4,1.4v2.7h-0.8v-4.8h0.8v0.6c0.4-0.5,1-0.7,1.6-0.7c0.8,0,1.4,0.4,1.8,1c0.4-0.7,1.1-1,1.8-1 C719.4,237.2,720.2,238,720.2,239.1z"/><path d="M726.6,239.7c0,1.4-1.1,2.5-2.5,2.5s-2.5-1.1-2.5-2.5c0-1.4,1.1-2.5,2.5-2.5S726.6,238.3,726.6,239.7z M722.4,239.7 c0,1,0.7,1.7,1.7,1.7c1,0,1.7-0.7,1.7-1.7c0-1-0.7-1.7-1.7-1.7C723.1,238,722.4,238.7,722.4,239.7z"/><path d="M731.1,238.1h-2v2.3c0,0.7,0.4,1,0.9,1c0.3,0,0.7-0.1,1-0.3l0.4,0.6c-0.4,0.3-0.8,0.5-1.4,0.5c-1,0-1.6-0.6-1.6-1.8v-2.3 h-1v-0.7h1v-1.5h0.8v1.5h2V238.1z"/><path d="M736.7,239.7c0,0.1,0,0.2,0,0.3h-3.7c0.1,1,0.8,1.5,1.6,1.5c0.6,0,1.1-0.2,1.5-0.6l0.4,0.6c-0.6,0.6-1.3,0.7-2,0.7 c-1.4,0-2.4-1-2.4-2.5c0-1.5,1-2.5,2.4-2.5C735.7,237.2,736.6,238.2,736.7,239.7z M732.9,239.3h2.9c-0.1-0.8-0.6-1.4-1.4-1.4 C733.6,238,733,238.5,732.9,239.3z"/><path d="M740.3,242.1h-0.8v-5.9l-2,0.9v-0.9l2.9-1.2V242.1z"/></g><g><g><path d="M720.3,304c-23.4,0-39.2-3.6-39.2-7.1v-28h78.4v28C759.5,300.4,743.8,304,720.3,304z" class="st2043"/><path d="M759.1,269.3V297c0,1.1-2.9,3-11,4.5c-7.4,1.4-17.3,2.2-27.8,2.2s-20.4-0.8-27.8-2.2 c-8.1-1.5-11-3.4-11-4.5v-27.6H759.1 M759.9,268.6h-79.2V297c0,4.1,17.7,7.4,39.6,7.4s39.6-3.3,39.6-7.4V268.6L759.9,268.6z" class="st2044"/></g><g><path d="M720.3,275.7c-23.4,0-39.2-3.6-39.2-7.1s15.8-7.1,39.2-7.1s39.2,3.6,39.2,7.1S743.8,275.7,720.3,275.7z" class="st2043"/><path d="M720.3,261.9c10.5,0,20.4,0.8,27.8,2.2c8.1,1.5,11,3.4,11,4.5s-2.9,3-11,4.5c-7.4,1.4-17.3,2.2-27.8,2.2 s-20.4-0.8-27.8-2.2c-8.1-1.5-11-3.4-11-4.5s2.9-3,11-4.5C699.9,262.7,709.8,261.9,720.3,261.9 M720.3,261.2 c-21.9,0-39.6,3.3-39.6,7.4c0,4.1,17.7,7.4,39.6,7.4s39.6-3.3,39.6-7.4C759.9,264.5,742.2,261.2,720.3,261.2L720.3,261.2z" class="st2044"/></g></g><g><path d="M702.4,285.1c1.6,0,2.5,0.7,2.5,2c0,1.2-0.9,2-2.4,2h-0.1l2.5,3h-1.1l-2.4-3h-0.8v3h-0.9v-7H702.4z M700.5,285.9v2.4h1.9 c1,0,1.6-0.4,1.6-1.2c0-0.8-0.5-1.2-1.6-1.2H700.5z"/><path d="M710.3,289.7c0,0.1,0,0.2,0,0.3h-3.7c0.1,1,0.8,1.5,1.6,1.5c0.6,0,1.1-0.2,1.5-0.6l0.4,0.6c-0.6,0.6-1.3,0.7-2,0.7 c-1.4,0-2.4-1-2.4-2.5c0-1.5,1-2.5,2.4-2.5C709.4,287.2,710.3,288.2,710.3,289.7z M706.6,289.3h2.9c-0.1-0.8-0.6-1.4-1.4-1.4 C707.2,288,706.7,288.5,706.6,289.3z"/><path d="M719.6,289.1v3h-0.8v-2.7c0-0.9-0.5-1.4-1.3-1.4c-0.8,0-1.4,0.5-1.4,1.4v2.7h-0.8v-2.7c0-0.9-0.5-1.4-1.3-1.4 c-0.8,0-1.4,0.5-1.4,1.4v2.7h-0.8v-4.8h0.8v0.6c0.4-0.5,1-0.7,1.6-0.7c0.8,0,1.4,0.4,1.8,1c0.4-0.7,1.1-1,1.8-1 C718.8,287.2,719.6,288,719.6,289.1z"/><path d="M725.9,289.7c0,1.4-1.1,2.5-2.5,2.5s-2.5-1.1-2.5-2.5c0-1.4,1.1-2.5,2.5-2.5S725.9,288.3,725.9,289.7z M721.7,289.7 c0,1,0.7,1.7,1.7,1.7c1,0,1.7-0.7,1.7-1.7c0-1-0.7-1.7-1.7-1.7C722.4,288,721.7,288.7,721.7,289.7z"/><path d="M730.5,288.1h-2v2.3c0,0.7,0.4,1,0.9,1c0.4,0,0.7-0.1,1-0.3l0.4,0.6c-0.4,0.3-0.8,0.5-1.4,0.5c-1,0-1.6-0.6-1.6-1.8v-2.3 h-1v-0.7h1v-1.5h0.8v1.5h2V288.1z"/><path d="M736,289.7c0,0.1,0,0.2,0,0.3h-3.7c0.1,1,0.8,1.5,1.6,1.5c0.6,0,1.1-0.2,1.5-0.6l0.4,0.6c-0.6,0.6-1.3,0.7-2,0.7 c-1.4,0-2.4-1-2.4-2.5c0-1.5,1-2.5,2.4-2.5C735.1,287.2,736,288.2,736,289.7z M732.3,289.3h2.9c-0.1-0.8-0.6-1.4-1.4-1.4 C732.9,288,732.4,288.5,732.3,289.3z"/><path d="M736.9,286.1c0.3-0.5,1-1.2,2.2-1.2c1.4,0,2.3,0.9,2.3,2.2c0,0.9-0.5,1.5-0.9,2l-2,2.1h3.2v0.8h-4.4v-0.7l2.6-2.8 c0.4-0.4,0.7-0.9,0.7-1.5c0-0.8-0.5-1.4-1.4-1.4c-0.8,0-1.2,0.4-1.5,0.9L736.9,286.1z"/></g><g><g><path d="M720.3,354c-23.4,0-39.2-3.6-39.2-7.1v-28h78.4v28C759.5,350.4,743.8,354,720.3,354z" class="st2043"/><path d="M759.1,319.3V347c0,1.1-2.9,3-11,4.5c-7.4,1.4-17.3,2.2-27.8,2.2s-20.4-0.8-27.8-2.2 c-8.1-1.5-11-3.4-11-4.5v-27.6H759.1 M759.9,318.6h-79.2V347c0,4.1,17.7,7.4,39.6,7.4s39.6-3.3,39.6-7.4V318.6L759.9,318.6z" class="st2044"/></g><g><path d="M720.3,325.7c-23.4,0-39.2-3.6-39.2-7.1s15.8-7.1,39.2-7.1s39.2,3.6,39.2,7.1S743.8,325.7,720.3,325.7z" class="st2043"/><path d="M720.3,311.9c10.5,0,20.4,0.8,27.8,2.2c8.1,1.5,11,3.4,11,4.5s-2.9,3-11,4.5c-7.4,1.4-17.3,2.2-27.8,2.2 s-20.4-0.8-27.8-2.2c-8.1-1.5-11-3.4-11-4.5s2.9-3,11-4.5C699.9,312.7,709.8,311.9,720.3,311.9 M720.3,311.2 c-21.9,0-39.6,3.3-39.6,7.4c0,4.1,17.7,7.4,39.6,7.4s39.6-3.3,39.6-7.4C759.9,314.5,742.2,311.2,720.3,311.2L720.3,311.2z" class="st2044"/></g></g><g><path d="M702.3,335.1c1.6,0,2.5,0.7,2.5,2c0,1.2-0.9,2-2.4,2h-0.1l2.5,3h-1.1l-2.4-3h-0.8v3h-0.9v-7H702.3z M700.4,335.9v2.4h1.9 c1,0,1.6-0.4,1.6-1.2c0-0.8-0.5-1.2-1.6-1.2H700.4z"/><path d="M710.3,339.7c0,0.1,0,0.2,0,0.3h-3.7c0.1,1,0.8,1.5,1.6,1.5c0.6,0,1.1-0.2,1.5-0.6l0.4,0.6c-0.6,0.6-1.3,0.7-2,0.7 c-1.4,0-2.4-1-2.4-2.5c0-1.5,1-2.5,2.4-2.5C709.4,337.2,710.3,338.2,710.3,339.7z M706.5,339.3h2.9c-0.1-0.8-0.6-1.4-1.4-1.4 C707.2,338,706.7,338.5,706.5,339.3z"/><path d="M719.5,339.1v3h-0.8v-2.7c0-0.9-0.5-1.4-1.3-1.4c-0.8,0-1.4,0.5-1.4,1.4v2.7h-0.8v-2.7c0-0.9-0.5-1.4-1.3-1.4 c-0.8,0-1.4,0.5-1.4,1.4v2.7h-0.8v-4.8h0.8v0.6c0.4-0.5,1-0.7,1.6-0.7c0.8,0,1.4,0.4,1.8,1c0.4-0.7,1.1-1,1.8-1 C718.7,337.2,719.5,338,719.5,339.1z"/><path d="M725.9,339.7c0,1.4-1.1,2.5-2.5,2.5s-2.5-1.1-2.5-2.5c0-1.4,1.1-2.5,2.5-2.5S725.9,338.3,725.9,339.7z M721.7,339.7 c0,1,0.7,1.7,1.7,1.7c1,0,1.7-0.7,1.7-1.7c0-1-0.7-1.7-1.7-1.7C722.4,338,721.7,338.7,721.7,339.7z"/><path d="M730.4,338.1h-2v2.3c0,0.7,0.4,1,0.9,1c0.4,0,0.7-0.1,1-0.3l0.4,0.6c-0.4,0.3-0.8,0.5-1.4,0.5c-1,0-1.6-0.6-1.6-1.8v-2.3 h-1v-0.7h1v-1.5h0.8v1.5h2V338.1z"/><path d="M736,339.7c0,0.1,0,0.2,0,0.3h-3.7c0.1,1,0.8,1.5,1.6,1.5c0.6,0,1.1-0.2,1.5-0.6l0.4,0.6c-0.6,0.6-1.3,0.7-2,0.7 c-1.4,0-2.4-1-2.4-2.5c0-1.5,1-2.5,2.4-2.5C735,337.2,735.9,338.2,736,339.7z M732.2,339.3h2.9c-0.1-0.8-0.6-1.4-1.4-1.4 C732.9,338,732.3,338.5,732.2,339.3z"/><path d="M741.4,336.9c0,0.8-0.4,1.3-1.1,1.6c0.7,0.3,1.2,0.8,1.2,1.7c0,1.3-1.2,2-2.4,2c-1,0-1.8-0.4-2.3-0.9l0.5-0.6 c0.4,0.5,1.1,0.7,1.7,0.7c0.8,0,1.6-0.4,1.6-1.2c0-0.8-0.7-1.2-1.7-1.2h-0.9v-0.8h0.9c0.8,0,1.5-0.4,1.5-1.2c0-0.7-0.7-1.2-1.5-1.2 c-0.7,0-1.2,0.4-1.5,0.8l-0.6-0.5c0.4-0.6,1.1-1.1,2.2-1.1C740.4,335,741.4,335.8,741.4,336.9z"/></g><rect width="123.2" height="86.5" x="455.5" y="240.5" class="st2045"/><g><path d="M500.9,277.2c2.6,0,4,1.2,4,3.2c0,1.9-1.5,3.2-3.7,3.2l3.7,4.7h-2.2l-3.6-4.7h-0.9v4.7h-1.8v-11.2H500.9z M498.1,278.9v3.2 h2.8c1.5,0,2.1-0.5,2.1-1.6c0-1.1-0.7-1.5-2.1-1.5H498.1z"/><path d="M514.1,288.4h-1.7v-0.9c-0.5,0.7-1.3,1.1-2.4,1.1c-2.1,0-3.8-1.7-3.8-4c0-2.3,1.7-4,3.8-4c1.1,0,1.9,0.4,2.4,1.1v-0.9h1.7 V288.4z M507.9,284.5c0,1.3,0.9,2.5,2.3,2.5c1.4,0,2.3-1.1,2.3-2.5s-0.9-2.5-2.3-2.5C508.8,282.1,507.9,283.2,507.9,284.5z"/><path d="M522.4,281.6v-4.8h1.7v11.5h-1.7v-0.9c-0.5,0.7-1.3,1.1-2.4,1.1c-2.1,0-3.8-1.7-3.8-4c0-2.3,1.7-4,3.8-4 C521.1,280.5,521.9,281,522.4,281.6z M517.9,284.5c0,1.3,0.9,2.5,2.3,2.5c1.4,0,2.3-1.1,2.3-2.5s-0.9-2.5-2.3-2.5 C518.8,282.1,517.9,283.2,517.9,284.5z"/><path d="M528.8,278.1c0,0.7-0.5,1.2-1.2,1.2c-0.7,0-1.2-0.5-1.2-1.2c0-0.7,0.5-1.2,1.2-1.2C528.2,276.9,528.8,277.4,528.8,278.1z M528.4,288.4h-1.7v-7.7h1.7V288.4z"/><path d="M538.7,284.5c0,2.3-1.8,4-4.1,4c-2.4,0-4.1-1.7-4.1-4s1.8-4,4.1-4C537,280.5,538.7,282.2,538.7,284.5z M532.2,284.5 c0,1.4,1,2.5,2.4,2.5s2.4-1,2.4-2.5c0-1.4-1-2.5-2.4-2.5S532.2,283.1,532.2,284.5z"/></g><g><g><line x1="582.8" x2="675.1" y1="283.8" y2="283.8" class="st2040"/><g><polygon points="583.6 286.6 578.7 283.8 583.6 281" class="st2041"/></g><g><polygon points="674.2 286.6 679.1 283.8 674.2 281" class="st2041"/></g></g></g><g><g><path d="M578.7,283.8c49.6,0,51-44.8,98-47.2" class="st2040"/><g><polygon points="676 239.4 680.7 236.5 675.8 233.8" class="st2041"/></g></g></g><g><g><path d="M578.7,283.8c49.6,0,51,44.8,98,47.2" class="st2040"/><g><polygon points="675.8 333.7 680.7 331.1 676 328.1" class="st2041"/></g></g></g><g><path d="M639.1,274.6c-0.5-0.3-1.2-0.6-1.9-0.6c-0.7,0-1.3,0.3-1.3,0.8c0,0.5,0.6,0.6,1.4,0.8l0.4,0.1c1.2,0.2,2.1,0.7,2.1,1.9 c0,1.5-1.3,2.2-2.7,2.2c-1,0-2.1-0.3-2.8-0.9l0.7-1.1c0.5,0.4,1.3,0.7,2.1,0.7c0.7,0,1.3-0.3,1.3-0.8c0-0.5-0.5-0.6-1.4-0.8 l-0.4-0.1c-1.2-0.2-2-0.7-2-1.9c0-1.4,1.2-2.1,2.6-2.1c0.9,0,1.7,0.2,2.5,0.7L639.1,274.6z"/><path d="M645.1,274.8c0,0.7-0.4,1.2-1,1.5c0.7,0.3,1.1,0.8,1.1,1.5c0,1.3-1.2,1.9-2.4,1.9c-1,0-1.8-0.4-2.3-1l0.8-0.8 c0.4,0.4,0.9,0.6,1.5,0.6c0.6,0,1.2-0.3,1.2-0.9c0-0.6-0.6-0.9-1.3-0.9h-0.8v-1.1h0.8c0.6,0,1.2-0.3,1.2-0.8c0-0.5-0.5-0.8-1.1-0.8 s-1.1,0.3-1.3,0.7l-0.8-0.8c0.4-0.6,1.2-1,2.2-1C644.2,272.8,645.1,273.6,645.1,274.8z"/><path d="M654.8,279.6h-1.4l-0.6-1.5H650l-0.6,1.5H648l2.6-6.6h1.6L654.8,279.6z M650.4,276.8h1.9l-1-2.6L650.4,276.8z"/><path d="M657,277.2v2.4h-1.3V273h2.7c1.6,0,2.4,0.8,2.4,2.1c0,1.3-0.8,2.1-2.4,2.1H657z M657,274.2v1.8h1.4c0.7,0,1.1-0.3,1.1-0.9 c0-0.6-0.4-0.9-1.1-0.9H657z"/><path d="M663.3,279.6h-1.3V273h1.3V279.6z"/></g><rect width="123.2" height="41.2" x="231.9" y="473.2" class="st2042"/><g><g><line x1="359.2" x2="451.5" y1="493.8" y2="493.8" class="st2040"/><g><polygon points="360 496.6 355.2 493.8 360 491" class="st2041"/></g><g><polygon points="450.7 496.6 455.5 493.8 450.7 491" class="st2041"/></g></g></g><g><path d="M266.8,498.4h-1.2l-1-2.5h-4.4l-1,2.5H258l3.7-9.1h1.4L266.8,498.4z M260.6,494.8h3.5l-1.8-4.4L260.6,494.8z"/><path d="M274.5,495.3c0,1.9-1.4,3.2-3.1,3.2c-1,0-1.7-0.4-2.2-1v3.4h-1.1v-8.8h1.1v0.8c0.5-0.6,1.2-1,2.2-1 C273.1,492.1,274.5,493.4,274.5,495.3z M269.1,495.3c0,1.3,0.9,2.2,2.1,2.2c1.3,0,2.1-1,2.1-2.2s-0.9-2.2-2.1-2.2 C270,493.1,269.1,494,269.1,495.3z"/><path d="M282.6,495.3c0,1.9-1.4,3.2-3.1,3.2c-1,0-1.7-0.4-2.2-1v3.4h-1.1v-8.8h1.1v0.8c0.5-0.6,1.2-1,2.2-1 C281.2,492.1,282.6,493.4,282.6,495.3z M277.2,495.3c0,1.3,0.9,2.2,2.1,2.2c1.3,0,2.1-1,2.1-2.2s-0.9-2.2-2.1-2.2 C278.1,493.1,277.2,494,277.2,495.3z"/><path d="M285.4,498.4h-1.1V489h1.1V498.4z"/><path d="M288.9,490c0,0.4-0.3,0.7-0.8,0.7c-0.4,0-0.7-0.3-0.7-0.7c0-0.4,0.3-0.8,0.7-0.8C288.6,489.3,288.9,489.6,288.9,490z M288.7,498.4h-1.1v-6.2h1.1V498.4z"/><path d="M296,493l-0.7,0.7c-0.5-0.4-1-0.7-1.6-0.7c-1.2,0-2.1,0.9-2.1,2.2c0,1.3,0.9,2.2,2.1,2.2c0.7,0,1.2-0.3,1.7-0.7l0.7,0.7 c-0.6,0.6-1.4,1-2.3,1c-1.9,0-3.2-1.4-3.2-3.2s1.3-3.2,3.2-3.2C294.6,492.1,295.4,492.4,296,493z"/><path d="M303.4,498.4h-1.1v-0.8c-0.5,0.6-1.2,1-2.2,1c-1.7,0-3.1-1.4-3.1-3.2s1.4-3.2,3.1-3.2c1,0,1.7,0.4,2.2,1v-0.8h1.1V498.4z M298.1,495.3c0,1.2,0.9,2.2,2.1,2.2c1.2,0,2.1-1,2.1-2.2c0-1.3-0.9-2.2-2.1-2.2C299,493.1,298.1,494,298.1,495.3z"/><path d="M309.8,493.2h-2.6v3c0,0.9,0.5,1.3,1.2,1.3c0.5,0,0.9-0.2,1.3-0.4l0.5,0.8c-0.5,0.3-1.1,0.6-1.9,0.6 c-1.3,0-2.1-0.7-2.1-2.3v-3h-1.3v-1h1.3v-1.9h1.1v1.9h2.6V493.2z"/><path d="M312.8,490c0,0.4-0.3,0.7-0.8,0.7c-0.4,0-0.7-0.3-0.7-0.7c0-0.4,0.3-0.8,0.7-0.8C312.5,489.3,312.8,489.6,312.8,490z M312.6,498.4h-1.1v-6.2h1.1V498.4z"/><path d="M320.9,495.3c0,1.8-1.4,3.2-3.3,3.2s-3.3-1.4-3.3-3.2s1.4-3.2,3.3-3.2S320.9,493.4,320.9,495.3z M315.4,495.3 c0,1.3,0.9,2.2,2.2,2.2c1.2,0,2.2-0.9,2.2-2.2c0-1.3-0.9-2.2-2.2-2.2C316.4,493.1,315.4,494,315.4,495.3z"/><path d="M328.3,494.5v3.8h-1.1v-3.5c0-1.1-0.6-1.8-1.7-1.8c-1,0-1.8,0.7-1.8,1.8v3.5h-1.1v-6.2h1.1v0.8c0.5-0.7,1.3-0.9,2-0.9 C327.3,492.1,328.3,493,328.3,494.5z"/></g><g><path d="M395.5,484.6c-0.5-0.3-1.2-0.6-1.9-0.6c-0.7,0-1.3,0.3-1.3,0.8c0,0.5,0.6,0.6,1.4,0.8l0.4,0.1c1.2,0.2,2.1,0.7,2.1,1.9 c0,1.5-1.3,2.2-2.7,2.2c-1,0-2.1-0.3-2.8-0.9l0.7-1.1c0.5,0.4,1.3,0.7,2.1,0.7c0.7,0,1.3-0.3,1.3-0.8c0-0.5-0.5-0.6-1.4-0.8 l-0.4-0.1c-1.2-0.2-2-0.7-2-1.9c0-1.4,1.2-2.1,2.6-2.1c0.9,0,1.7,0.2,2.5,0.7L395.5,484.6z"/><path d="M401.5,484.8c0,0.7-0.4,1.2-1,1.5c0.7,0.3,1.1,0.8,1.1,1.5c0,1.3-1.2,1.9-2.4,1.9c-1,0-1.8-0.4-2.3-1l0.8-0.8 c0.4,0.4,0.9,0.6,1.5,0.6c0.6,0,1.2-0.3,1.2-0.9c0-0.6-0.6-0.9-1.3-0.9h-0.8v-1.1h0.8c0.6,0,1.2-0.3,1.2-0.8c0-0.5-0.5-0.8-1.1-0.8 c-0.6,0-1.1,0.3-1.3,0.7l-0.8-0.8c0.4-0.6,1.2-1,2.2-1C400.6,482.8,401.5,483.6,401.5,484.8z"/><path d="M411.2,489.6h-1.4l-0.6-1.5h-2.8l-0.6,1.5h-1.4l2.6-6.6h1.6L411.2,489.6z M406.8,486.8h1.9l-1-2.6L406.8,486.8z"/><path d="M413.4,487.2v2.4h-1.3V483h2.7c1.6,0,2.4,0.8,2.4,2.1c0,1.3-0.8,2.1-2.4,2.1H413.4z M413.4,484.2v1.8h1.4 c0.7,0,1.1-0.3,1.1-0.9c0-0.6-0.4-0.9-1.1-0.9H413.4z"/><path d="M419.7,489.6h-1.3V483h1.3V489.6z"/></g><g><g><path d="M696.5,407c-0.5-0.3-1.2-0.6-1.9-0.6c-0.7,0-1.3,0.3-1.3,0.8c0,0.5,0.6,0.6,1.4,0.8l0.4,0.1c1.2,0.2,2.1,0.7,2.1,1.9 c0,1.5-1.3,2.2-2.7,2.2c-1,0-2.1-0.3-2.8-0.9l0.7-1.1c0.5,0.4,1.3,0.7,2.1,0.7c0.7,0,1.3-0.3,1.3-0.8c0-0.5-0.5-0.6-1.4-0.8 l-0.4-0.1c-1.2-0.2-2-0.7-2-1.9c0-1.4,1.2-2.1,2.6-2.1c0.9,0,1.7,0.2,2.5,0.7L696.5,407z"/><path d="M702.6,407.1c0,0.7-0.4,1.2-1,1.5c0.7,0.3,1.1,0.8,1.1,1.5c0,1.3-1.2,1.9-2.4,1.9c-1,0-1.8-0.4-2.3-1l0.8-0.8 c0.4,0.4,0.9,0.6,1.5,0.6c0.6,0,1.2-0.3,1.2-0.9c0-0.6-0.6-0.9-1.3-0.9h-0.8V408h0.8c0.6,0,1.2-0.3,1.2-0.8c0-0.5-0.5-0.8-1.1-0.8 s-1.1,0.3-1.3,0.7l-0.8-0.8c0.4-0.6,1.2-1,2.2-1C701.6,405.2,702.6,405.9,702.6,407.1z"/><path d="M709,405.3c1.5,0,2.5,0.6,2.5,1.8c0,0.7-0.4,1.2-1,1.4c0.6,0.2,1.1,0.8,1.1,1.5c0,1.3-0.9,1.9-2.5,1.9h-2.9v-6.6H709z M707.6,406.4v1.6h1.4c0.7,0,1.2-0.1,1.2-0.8c0-0.6-0.5-0.8-1.2-0.8H707.6z M707.6,409.2v1.6l1.5,0c0.7,0,1.2-0.2,1.2-0.8 c0-0.6-0.5-0.8-1.2-0.8H707.6z"/><path d="M717.3,411.9H716v-0.5c-0.3,0.4-0.7,0.6-1.4,0.6c-1.3,0-2.2-1-2.2-2.4c0-1.4,1-2.4,2.2-2.4c0.6,0,1.1,0.3,1.4,0.6v-0.5 h1.2V411.9z M713.7,409.6c0,0.7,0.5,1.3,1.2,1.3c0.7,0,1.2-0.5,1.2-1.3s-0.5-1.3-1.2-1.3C714.2,408.4,713.7,408.9,713.7,409.6z"/><path d="M722.6,408.1l-0.9,0.7c-0.3-0.3-0.6-0.5-1-0.5c-0.6,0-1.2,0.5-1.2,1.3c0,0.8,0.5,1.3,1.1,1.3c0.4,0,0.7-0.2,1-0.5l0.9,0.8 c-0.4,0.6-1.1,0.9-1.8,0.9c-1.5,0-2.4-1-2.4-2.4c0-1.4,1-2.4,2.4-2.4C721.5,407.2,722.1,407.5,722.6,408.1z"/><path d="M724.7,409h0.4l1.3-1.6h1.5l-1.8,2.2l1.8,2.4h-1.5l-1.3-1.9h-0.4v1.9h-1.2v-6.8h1.2V409z"/><path d="M732.7,409.6c0,0.1,0,0.3,0,0.4h-3.3c0.1,0.7,0.6,1,1.2,1c0.4,0,0.8-0.2,1.2-0.4l0.7,0.8c-0.5,0.5-1.2,0.7-2,0.7 c-1.4,0-2.4-1-2.4-2.4c0-1.4,0.9-2.4,2.3-2.4C731.8,407.2,732.7,408.2,732.7,409.6z M729.4,409.2h2c-0.1-0.6-0.5-0.9-1-0.9 C729.9,408.3,729.5,408.6,729.4,409.2z"/><path d="M738.1,409v2.9h-1.2v-2.5c0-0.7-0.3-1-0.9-1c-0.5,0-1,0.3-1,1v2.5h-1.2v-4.6h1.2v0.5c0.3-0.5,0.8-0.7,1.4-0.7 C737.3,407.2,738.1,407.9,738.1,409z"/><path d="M742.6,407.8v-2.7h1.2v6.8h-1.2v-0.5c-0.3,0.4-0.7,0.6-1.4,0.6c-1.3,0-2.2-1-2.2-2.4c0-1.4,1-2.4,2.2-2.4 C741.9,407.2,742.3,407.4,742.6,407.8z M740.3,409.6c0,0.7,0.5,1.3,1.2,1.3c0.7,0,1.2-0.5,1.2-1.3s-0.5-1.3-1.2-1.3 C740.8,408.4,740.3,408.9,740.3,409.6z"/><path d="M748.5,408.6c-0.4-0.2-0.9-0.4-1.5-0.4c-0.5,0-0.7,0.2-0.7,0.4c0,0.3,0.3,0.3,0.7,0.4l0.4,0.1c1,0.2,1.6,0.6,1.6,1.4 c0,0.9-0.8,1.6-2.1,1.6c-0.6,0-1.4-0.1-2-0.5l0.5-0.9c0.4,0.3,0.9,0.5,1.6,0.5c0.6,0,0.8-0.2,0.8-0.4c0-0.2-0.2-0.3-0.8-0.4 l-0.4-0.1c-1.1-0.1-1.6-0.6-1.6-1.4c0-0.9,0.7-1.5,1.9-1.5c0.7,0,1.3,0.1,1.9,0.4L748.5,408.6z"/></g></g><g><g><path d="M720.3,464c-23.4,0-39.2-3.6-39.2-7.1v-28h78.4v28C759.5,460.4,743.8,464,720.3,464z" class="st2046"/><path d="M759.1,429.3V457c0,1.1-2.9,3-11,4.5c-7.4,1.4-17.3,2.2-27.8,2.2s-20.4-0.8-27.8-2.2 c-8.1-1.5-11-3.4-11-4.5v-27.6H759.1 M759.9,428.6h-79.2V457c0,4.1,17.7,7.4,39.6,7.4c21.9,0,39.6-3.3,39.6-7.4V428.6L759.9,428.6 z" class="st2047"/></g><g><path d="M720.3,435.7c-23.4,0-39.2-3.6-39.2-7.1s15.8-7.1,39.2-7.1s39.2,3.6,39.2,7.1S743.8,435.7,720.3,435.7z" class="st2046"/><path d="M720.3,421.9c10.5,0,20.4,0.8,27.8,2.2c8.1,1.5,11,3.4,11,4.5s-2.9,3-11,4.5c-7.4,1.4-17.3,2.2-27.8,2.2 c-10.5,0-20.4-0.8-27.8-2.2c-8.1-1.5-11-3.4-11-4.5s2.9-3,11-4.5C699.9,422.7,709.8,421.9,720.3,421.9 M720.3,421.2 c-21.9,0-39.6,3.3-39.6,7.4s17.7,7.4,39.6,7.4c21.9,0,39.6-3.3,39.6-7.4S742.2,421.2,720.3,421.2L720.3,421.2z" class="st2047"/></g></g><g><path d="M709.4,445.1c2.3,0,3.7,1.4,3.7,3.5s-1.5,3.5-3.7,3.5h-2.7v-7H709.4z M707.6,445.9v5.3h1.8c1.8,0,2.8-1.1,2.8-2.7 c0-1.6-1-2.7-2.8-2.7H707.6z"/><path d="M719.1,452.1h-0.8v-0.6c-0.4,0.4-0.9,0.7-1.7,0.7c-1.3,0-2.4-1-2.4-2.5c0-1.4,1-2.5,2.4-2.5c0.7,0,1.3,0.3,1.7,0.7v-0.6 h0.8V452.1z M715,449.7c0,0.9,0.7,1.7,1.6,1.7c1,0,1.6-0.7,1.6-1.7c0-1-0.7-1.7-1.6-1.7C715.7,448,715,448.8,715,449.7z"/><path d="M724,448.1h-2v2.3c0,0.7,0.4,1,0.9,1c0.4,0,0.7-0.1,1-0.3l0.4,0.6c-0.4,0.3-0.8,0.5-1.4,0.5c-1,0-1.6-0.6-1.6-1.8v-2.3h-1 v-0.7h1v-1.5h0.8v1.5h2V448.1z"/><path d="M729.8,452.1H729v-0.6c-0.4,0.4-0.9,0.7-1.7,0.7c-1.3,0-2.4-1-2.4-2.5c0-1.4,1-2.5,2.4-2.5c0.7,0,1.3,0.3,1.7,0.7v-0.6h0.8 V452.1z M725.8,449.7c0,0.9,0.7,1.7,1.6,1.7c1,0,1.6-0.7,1.6-1.7c0-1-0.7-1.7-1.6-1.7C726.4,448,725.8,448.8,725.8,449.7z"/><path d="M733.9,452.1H733v-5.9l-2,0.9v-0.9l2.9-1.2V452.1z"/></g><g><g><path d="M720.3,514c-23.4,0-39.2-3.6-39.2-7.1v-28h78.4v28C759.5,510.4,743.8,514,720.3,514z" class="st2046"/><path d="M759.1,479.3V507c0,1.1-2.9,3-11,4.5c-7.4,1.4-17.3,2.2-27.8,2.2s-20.4-0.8-27.8-2.2 c-8.1-1.5-11-3.4-11-4.5v-27.6H759.1 M759.9,478.6h-79.2V507c0,4.1,17.7,7.4,39.6,7.4s39.6-3.3,39.6-7.4V478.6L759.9,478.6z" class="st2047"/></g><g><path d="M720.3,485.7c-23.4,0-39.2-3.6-39.2-7.1s15.8-7.1,39.2-7.1s39.2,3.6,39.2,7.1S743.8,485.7,720.3,485.7z" class="st2046"/><path d="M720.3,471.9c10.5,0,20.4,0.8,27.8,2.2c8.1,1.5,11,3.4,11,4.5s-2.9,3-11,4.5c-7.4,1.4-17.3,2.2-27.8,2.2 s-20.4-0.8-27.8-2.2c-8.1-1.5-11-3.4-11-4.5s2.9-3,11-4.5C699.9,472.7,709.8,471.9,720.3,471.9 M720.3,471.2 c-21.9,0-39.6,3.3-39.6,7.4s17.7,7.4,39.6,7.4s39.6-3.3,39.6-7.4S742.2,471.2,720.3,471.2L720.3,471.2z" class="st2047"/></g></g><g><path d="M708.7,495.1c2.3,0,3.7,1.4,3.7,3.5s-1.5,3.5-3.7,3.5h-2.7v-7H708.7z M706.9,495.9v5.3h1.8c1.8,0,2.8-1.1,2.8-2.7 c0-1.6-1-2.7-2.8-2.7H706.9z"/><path d="M718.4,502.1h-0.8v-0.6c-0.4,0.4-0.9,0.7-1.7,0.7c-1.3,0-2.4-1-2.4-2.5c0-1.4,1-2.5,2.4-2.5c0.7,0,1.3,0.3,1.7,0.7v-0.6 h0.8V502.1z M714.4,499.7c0,0.9,0.7,1.7,1.6,1.7c1,0,1.6-0.7,1.6-1.7c0-1-0.7-1.7-1.6-1.7C715,498,714.4,498.8,714.4,499.7z"/><path d="M723.4,498.1h-2v2.3c0,0.7,0.4,1,0.9,1c0.4,0,0.7-0.1,1-0.3l0.4,0.6c-0.4,0.3-0.8,0.5-1.4,0.5c-1,0-1.6-0.6-1.6-1.8v-2.3 h-1v-0.7h1v-1.5h0.8v1.5h2V498.1z"/><path d="M729.2,502.1h-0.8v-0.6c-0.4,0.4-0.9,0.7-1.7,0.7c-1.3,0-2.4-1-2.4-2.5c0-1.4,1-2.5,2.4-2.5c0.7,0,1.3,0.3,1.7,0.7v-0.6 h0.8V502.1z M725.1,499.7c0,0.9,0.7,1.7,1.6,1.7c1,0,1.6-0.7,1.6-1.7c0-1-0.7-1.7-1.6-1.7C725.8,498,725.1,498.8,725.1,499.7z"/><path d="M730.5,496.1c0.3-0.5,1-1.2,2.2-1.2c1.4,0,2.3,0.9,2.3,2.2c0,0.9-0.5,1.5-0.9,2l-2,2.1h3.2v0.8h-4.4v-0.7l2.6-2.8 c0.4-0.4,0.7-0.9,0.7-1.5c0-0.8-0.5-1.4-1.4-1.4c-0.8,0-1.2,0.4-1.5,0.9L730.5,496.1z"/></g><g><g><path d="M720.3,563.9c-23,0-39.1-3.7-39.1-6.9v-27.9h78.1V557C759.4,560.2,743.3,563.9,720.3,563.9z" class="st2048"/><path d="M758.9,529.6V557c0,0.8-2.3,2.7-10.8,4.3c-7.4,1.4-17.3,2.2-27.8,2.2s-20.4-0.8-27.8-2.2 c-8.5-1.6-10.8-3.5-10.8-4.3v-27.4H758.9 M759.9,528.6h-79.2V557c0,4.1,17.7,7.4,39.6,7.4s39.6-3.3,39.6-7.4V528.6L759.9,528.6z" class="st2049"/></g><g><path d="M720.3,535.5c-23,0-39.1-3.7-39.1-6.9s16-6.9,39.1-6.9s39.1,3.7,39.1,6.9S743.3,535.5,720.3,535.5z" class="st2048"/><path d="M720.3,522.2c10.5,0,20.4,0.8,27.8,2.2c8.5,1.6,10.8,3.5,10.8,4.3s-2.3,2.7-10.8,4.3 c-7.4,1.4-17.3,2.2-27.8,2.2s-20.4-0.8-27.8-2.2c-8.5-1.6-10.8-3.5-10.8-4.3s2.3-2.7,10.8-4.3 C699.9,522.9,709.8,522.2,720.3,522.2 M720.3,521.2c-21.9,0-39.6,3.3-39.6,7.4s17.7,7.4,39.6,7.4s39.6-3.3,39.6-7.4 S742.2,521.2,720.3,521.2L720.3,521.2z" class="st2049"/></g></g><g><path d="M705.4,549.3v2.8h-0.9v-7h2.7c1.6,0,2.5,0.8,2.5,2.1s-0.9,2.1-2.5,2.1H705.4z M705.4,545.9v2.5h1.8c1,0,1.6-0.4,1.6-1.3 s-0.5-1.3-1.6-1.3H705.4z"/><path d="M715.4,552.1h-0.8v-0.6c-0.4,0.4-0.9,0.7-1.7,0.7c-1.3,0-2.4-1-2.4-2.5c0-1.4,1-2.5,2.4-2.5c0.7,0,1.3,0.3,1.7,0.7v-0.6 h0.8V552.1z M711.3,549.7c0,0.9,0.7,1.7,1.6,1.7c1,0,1.6-0.7,1.6-1.7c0-1-0.7-1.7-1.6-1.7C712,548,711.3,548.8,711.3,549.7z"/><path d="M720.2,547.4l-0.2,0.8c-0.2-0.1-0.5-0.2-0.8-0.2c-0.7,0-1.2,0.6-1.2,1.4v2.6h-0.8v-4.8h0.8v0.6c0.3-0.5,0.8-0.7,1.4-0.7 C719.6,547.2,719.9,547.3,720.2,547.4z"/><path d="M722.3,545.7c0,0.3-0.3,0.6-0.6,0.6s-0.6-0.2-0.6-0.6c0-0.3,0.2-0.6,0.6-0.6S722.3,545.3,722.3,545.7z M722.1,552.1h-0.8 v-4.8h0.8V552.1z"/><path d="M727,548.1h-2v2.3c0,0.7,0.4,1,0.9,1c0.4,0,0.7-0.1,1-0.3l0.4,0.6c-0.4,0.3-0.8,0.5-1.4,0.5c-1,0-1.6-0.6-1.6-1.8v-2.3h-1 v-0.7h1v-1.5h0.8v1.5h2V548.1z"/><path d="M729,554.1h-0.9l1.8-3l-2.2-3.7h0.9l1.7,2.9l1.6-2.9h0.9L729,554.1z"/><path d="M736.1,552.1h-0.8v-5.9l-2,0.9v-0.9l2.9-1.2V552.1z"/></g><rect width="123.2" height="86.5" x="455.5" y="450.5" class="st2045"/><g><path d="M500.9,487.2c2.6,0,4,1.2,4,3.2c0,1.9-1.5,3.2-3.7,3.2l3.7,4.7h-2.2l-3.6-4.7h-0.9v4.7h-1.8v-11.2H500.9z M498.1,488.9v3.2 h2.8c1.5,0,2.1-0.5,2.1-1.6c0-1.1-0.7-1.5-2.1-1.5H498.1z"/><path d="M514.1,498.4h-1.7v-0.9c-0.5,0.7-1.3,1.1-2.4,1.1c-2.1,0-3.8-1.7-3.8-4c0-2.3,1.7-4,3.8-4c1.1,0,1.9,0.4,2.4,1.1v-0.9h1.7 V498.4z M507.9,494.5c0,1.3,0.9,2.5,2.3,2.5c1.4,0,2.3-1.1,2.3-2.5s-0.9-2.5-2.3-2.5C508.8,492.1,507.9,493.2,507.9,494.5z"/><path d="M522.4,491.6v-4.8h1.7v11.5h-1.7v-0.9c-0.5,0.7-1.3,1.1-2.4,1.1c-2.1,0-3.8-1.7-3.8-4c0-2.3,1.7-4,3.8-4 C521.1,490.5,521.9,491,522.4,491.6z M517.9,494.5c0,1.3,0.9,2.5,2.3,2.5c1.4,0,2.3-1.1,2.3-2.5s-0.9-2.5-2.3-2.5 C518.8,492.1,517.9,493.2,517.9,494.5z"/><path d="M528.8,488.1c0,0.7-0.5,1.2-1.2,1.2c-0.7,0-1.2-0.5-1.2-1.2c0-0.7,0.5-1.2,1.2-1.2C528.2,486.9,528.8,487.4,528.8,488.1z M528.4,498.4h-1.7v-7.7h1.7V498.4z"/><path d="M538.7,494.5c0,2.3-1.8,4-4.1,4c-2.4,0-4.1-1.7-4.1-4s1.8-4,4.1-4C537,490.5,538.7,492.2,538.7,494.5z M532.2,494.5 c0,1.4,1,2.5,2.4,2.5s2.4-1,2.4-2.5c0-1.4-1-2.5-2.4-2.5S532.2,493.1,532.2,494.5z"/></g><g><g><line x1="582.8" x2="675.1" y1="493.8" y2="493.8" class="st2040"/><g><polygon points="583.6 496.6 578.7 493.8 583.6 491" class="st2041"/></g><g><polygon points="674.2 496.6 679.1 493.8 674.2 491" class="st2041"/></g></g></g><g><g><path d="M578.7,493.8c49.6,0,51-44.8,98-47.2" class="st2040"/><g><polygon points="676 449.4 680.7 446.5 675.8 443.8" class="st2041"/></g></g></g><g><g><path d="M578.7,493.8c49.6,0,51,44.8,98,47.2" class="st2040"/><g><polygon points="675.8 543.7 680.7 541.1 676 538.1" class="st2041"/></g></g></g><g><path d="M639.1,484.6c-0.5-0.3-1.2-0.6-1.9-0.6c-0.7,0-1.3,0.3-1.3,0.8c0,0.5,0.6,0.6,1.4,0.8l0.4,0.1c1.2,0.2,2.1,0.7,2.1,1.9 c0,1.5-1.3,2.2-2.7,2.2c-1,0-2.1-0.3-2.8-0.9l0.7-1.1c0.5,0.4,1.3,0.7,2.1,0.7c0.7,0,1.3-0.3,1.3-0.8c0-0.5-0.5-0.6-1.4-0.8 l-0.4-0.1c-1.2-0.2-2-0.7-2-1.9c0-1.4,1.2-2.1,2.6-2.1c0.9,0,1.7,0.2,2.5,0.7L639.1,484.6z"/><path d="M645.1,484.8c0,0.7-0.4,1.2-1,1.5c0.7,0.3,1.1,0.8,1.1,1.5c0,1.3-1.2,1.9-2.4,1.9c-1,0-1.8-0.4-2.3-1l0.8-0.8 c0.4,0.4,0.9,0.6,1.5,0.6c0.6,0,1.2-0.3,1.2-0.9c0-0.6-0.6-0.9-1.3-0.9h-0.8v-1.1h0.8c0.6,0,1.2-0.3,1.2-0.8c0-0.5-0.5-0.8-1.1-0.8 s-1.1,0.3-1.3,0.7l-0.8-0.8c0.4-0.6,1.2-1,2.2-1C644.2,482.8,645.1,483.6,645.1,484.8z"/><path d="M654.8,489.6h-1.4l-0.6-1.5H650l-0.6,1.5H648l2.6-6.6h1.6L654.8,489.6z M650.4,486.8h1.9l-1-2.6L650.4,486.8z"/><path d="M657,487.2v2.4h-1.3V483h2.7c1.6,0,2.4,0.8,2.4,2.1c0,1.3-0.8,2.1-2.4,2.1H657z M657,484.2v1.8h1.4c0.7,0,1.1-0.3,1.1-0.9 c0-0.6-0.4-0.9-1.1-0.9H657z"/><path d="M663.3,489.6h-1.3V483h1.3V489.6z"/></g><line x1="87.6" x2="824.3" y1="379.1" y2="379.1" class="st2050"/><g><path d="M137.4,280.6h-1.5v-5.8l-1.9,5.1h-1.6l-1.9-5v5.8h-1.5v-7.7h2.2l2,5.2l2-5.2h2.2V280.6z"/><path d="M140.7,280.6h-1.5v-7.7h1.5V280.6z"/><path d="M145.7,272.9c1.8,0,2.8,0.9,2.8,2.3c0,1.3-0.9,2.1-2.4,2.3l2.4,3.1h-1.9l-2.2-3.1H144v3.1h-1.5v-7.7H145.7z M144,274.3v1.9 h1.7c0.8,0,1.3-0.3,1.3-1c0-0.6-0.5-0.9-1.3-0.9H144z"/><path d="M153.2,272.9c1.8,0,2.8,0.9,2.8,2.3c0,1.3-0.9,2.1-2.4,2.3l2.4,3.1h-1.9l-2.2-3.1h-0.5v3.1h-1.5v-7.7H153.2z M151.4,274.3 v1.9h1.7c0.8,0,1.3-0.3,1.3-1c0-0.6-0.5-0.9-1.3-0.9H151.4z"/><path d="M165.1,276.7c0,2.3-1.7,4-4,4s-4-1.7-4-4s1.7-4,4-4S165.1,274.4,165.1,276.7z M158.6,276.7c0,1.5,1,2.5,2.4,2.5 c1.4,0,2.4-1,2.4-2.5s-1-2.5-2.4-2.5C159.6,274.2,158.6,275.2,158.6,276.7z"/><path d="M169.7,272.9c1.8,0,2.8,0.9,2.8,2.3c0,1.3-0.9,2.1-2.4,2.3l2.4,3.1h-1.9l-2.2-3.1H168v3.1h-1.5v-7.7H169.7z M168,274.3v1.9 h1.7c0.8,0,1.3-0.3,1.3-1c0-0.6-0.5-0.9-1.3-0.9H168z"/><path d="M138.2,288c-0.6-0.4-1.3-0.7-2.2-0.7c-0.9,0-1.5,0.3-1.5,0.9c0,0.6,0.7,0.7,1.6,0.9l0.4,0.1c1.4,0.2,2.4,0.8,2.4,2.2 c0,1.7-1.5,2.5-3.1,2.5c-1.2,0-2.4-0.3-3.2-1l0.8-1.2c0.6,0.4,1.5,0.8,2.5,0.8c0.9,0,1.5-0.3,1.5-0.9c0-0.5-0.6-0.7-1.6-0.9 l-0.5-0.1c-1.4-0.2-2.3-0.8-2.3-2.2c0-1.6,1.4-2.4,3.1-2.4c1.1,0,2,0.2,2.9,0.8L138.2,288z"/><path d="M146.2,293.8h-5.7v-7.7h5.7v1.4h-4.2v1.7h4v1.4h-4v1.8h4.2V293.8z"/><path d="M153.3,287.5H151v6.3h-1.5v-6.3H147v-1.4h6.3V287.5z"/><path d="M160.9,290.7c0,2.1-1.4,3.2-3.3,3.2c-2,0-3.3-1.1-3.3-3.2v-4.6h1.5v4.5c0,1.3,0.7,1.8,1.8,1.8c1.1,0,1.8-0.6,1.8-1.8v-4.5 h1.5V290.7z"/><path d="M164.1,290.9v2.8h-1.5v-7.7h3.1c1.8,0,2.8,1,2.8,2.4c0,1.5-1,2.4-2.8,2.4H164.1z M164.1,287.5v2.1h1.6c0.8,0,1.3-0.3,1.3-1 c0-0.7-0.4-1-1.3-1H164.1z"/></g><g><path d="M130.6,490.6h-5.7v-7.7h5.7v1.4h-4.2v1.7h4v1.4h-4v1.8h4.2V490.6z"/><path d="M135.4,482.9c1.8,0,2.8,0.9,2.8,2.3c0,1.3-0.9,2.1-2.4,2.3l2.4,3.1h-1.9l-2.2-3.1h-0.5v3.1h-1.5v-7.7H135.4z M133.7,484.3 v1.9h1.7c0.8,0,1.3-0.3,1.3-1c0-0.6-0.5-0.9-1.3-0.9H133.7z"/><path d="M146.7,490.6H145l-0.7-1.8h-3.3l-0.7,1.8h-1.6l3-7.7h1.9L146.7,490.6z M141.6,487.3h2.2l-1.1-3L141.6,487.3z"/><path d="M152.8,484.8c-0.6-0.4-1.3-0.7-2.2-0.7c-0.9,0-1.5,0.3-1.5,0.9c0,0.6,0.7,0.7,1.6,0.9l0.4,0.1c1.4,0.2,2.4,0.8,2.4,2.2 c0,1.7-1.5,2.5-3.1,2.5c-1.2,0-2.4-0.3-3.2-1l0.8-1.2c0.6,0.4,1.5,0.8,2.5,0.8c0.9,0,1.5-0.3,1.5-0.9c0-0.5-0.6-0.7-1.6-0.9 l-0.5-0.1c-1.4-0.2-2.3-0.8-2.3-2.2c0-1.6,1.4-2.4,3.1-2.4c1.1,0,2,0.2,2.9,0.8L152.8,484.8z"/><path d="M161.5,487.5c0,2.1-1.4,3.2-3.3,3.2c-2,0-3.3-1.1-3.3-3.2v-4.6h1.5v4.5c0,1.3,0.7,1.8,1.8,1.8c1.1,0,1.8-0.6,1.8-1.8v-4.5 h1.5V487.5z"/><path d="M166.4,482.9c1.8,0,2.8,0.9,2.8,2.3c0,1.3-0.9,2.1-2.4,2.3l2.4,3.1h-1.9l-2.2-3.1h-0.5v3.1h-1.5v-7.7H166.4z M164.7,484.3 v1.9h1.7c0.8,0,1.3-0.3,1.3-1c0-0.6-0.5-0.9-1.3-0.9H164.7z"/><path d="M176.4,490.6h-5.7v-7.7h5.7v1.4h-4.2v1.7h4v1.4h-4v1.8h4.2V490.6z"/><path d="M138.2,498c-0.6-0.4-1.3-0.7-2.2-0.7c-0.9,0-1.5,0.3-1.5,0.9c0,0.6,0.7,0.7,1.6,0.9l0.4,0.1c1.4,0.2,2.4,0.8,2.4,2.2 c0,1.7-1.5,2.5-3.1,2.5c-1.2,0-2.4-0.3-3.2-1l0.8-1.2c0.6,0.4,1.5,0.8,2.5,0.8c0.9,0,1.5-0.3,1.5-0.9c0-0.5-0.6-0.7-1.6-0.9 l-0.5-0.1c-1.4-0.2-2.3-0.8-2.3-2.2c0-1.6,1.4-2.4,3.1-2.4c1.1,0,2,0.2,2.9,0.8L138.2,498z"/><path d="M146.2,503.8h-5.7v-7.7h5.7v1.4h-4.2v1.7h4v1.4h-4v1.8h4.2V503.8z"/><path d="M153.3,497.5H151v6.3h-1.5v-6.3H147v-1.4h6.3V497.5z"/><path d="M160.9,500.7c0,2.1-1.4,3.2-3.3,3.2c-2,0-3.3-1.1-3.3-3.2v-4.6h1.5v4.5c0,1.3,0.7,1.8,1.8,1.8c1.1,0,1.8-0.6,1.8-1.8v-4.5 h1.5V500.7z"/><path d="M164.1,500.9v2.8h-1.5v-7.7h3.1c1.8,0,2.8,1,2.8,2.4c0,1.5-1,2.4-2.8,2.4H164.1z M164.1,497.5v2.1h1.6c0.8,0,1.3-0.3,1.3-1 c0-0.7-0.4-1-1.3-1H164.1z"/></g><g><path d="M101.1,88.9c5.6,0,8.8,2.6,8.8,7.1c0,4.4-3.3,7.1-8.8,7.1h-1.7l10.4,11.7h-1.7l-10.3-11.7H93v11.7h-1.4V88.9H101.1z M93,90.2v11.6h8.2c4.7,0,7.4-2.1,7.4-5.8c0-3.7-2.7-5.8-7.4-5.8H93z"/><path d="M131.1,114.8h-1.3v-4c-1.4,2.5-4.1,4.2-7.4,4.2c-5,0-8.7-3.8-8.7-8.8c0-5.1,3.8-8.8,8.7-8.8c3.3,0,5.9,1.7,7.4,4.3v-4.1 h1.3V114.8z M115.1,106.2c0,4.3,3.1,7.6,7.4,7.6c4.3,0,7.4-3.3,7.4-7.6c0-4.3-3.2-7.6-7.4-7.6C118.2,98.6,115.1,101.9,115.1,106.2z"/><path d="M152.9,101.6V88.2h1.3v26.6h-1.3v-4c-1.4,2.5-4.1,4.2-7.4,4.2c-5,0-8.7-3.8-8.7-8.8c0-5.1,3.8-8.8,8.7-8.8 C148.8,97.4,151.4,99.1,152.9,101.6z M138.1,106.2c0,4.3,3.1,7.6,7.4,7.6c4.3,0,7.4-3.3,7.4-7.6c0-4.3-3.2-7.6-7.4-7.6 C141.2,98.6,138.1,101.9,138.1,106.2z"/><path d="M162.8,91.2c0,0.5-0.4,0.9-1,0.9s-0.9-0.4-0.9-0.9c0-0.5,0.4-1,0.9-1S162.8,90.7,162.8,91.2z M162.5,114.8h-1.3V97.6h1.3 V114.8z"/><path d="M185.7,106.2c0,5-3.8,8.8-8.8,8.8c-5,0-8.8-3.8-8.8-8.8c0-5,3.8-8.8,8.8-8.8C181.9,97.4,185.7,101.2,185.7,106.2z M169.4,106.2c0,4.4,3.2,7.6,7.5,7.6c4.3,0,7.5-3.2,7.5-7.6c0-4.4-3.3-7.6-7.5-7.6C172.6,98.6,169.4,101.8,169.4,106.2z"/><path d="M221.8,114.8h-1.5l-3.4-8h-14.2l-3.4,8h-1.4l11.2-25.9h1.7L221.8,114.8z M203.2,105.5h13.1l-6.5-15.2L203.2,105.5z"/><path d="M236.2,98.1l-0.4,1.2c-0.9-0.5-2-0.7-3.1-0.7c-3.3,0-5.4,2.8-5.4,6.3v9.9h-1.3V97.6h1.3v3c1.1-1.9,2.9-3.2,5.5-3.2 C234.1,97.4,235.3,97.6,236.2,98.1z"/><path d="M253.7,100l-0.8,0.9c-1.4-1.4-3.3-2.3-5.5-2.3c-4.2,0-7.4,3.2-7.4,7.6c0,4.4,3.2,7.6,7.4,7.6c2.2,0,4.1-0.9,5.5-2.3 l0.8,0.9c-1.6,1.7-3.8,2.6-6.3,2.6c-5,0-8.7-3.8-8.7-8.8c0-5,3.7-8.8,8.7-8.8C249.9,97.4,252.1,98.3,253.7,100z"/><path d="M260.2,100.9c1.2-2.1,3.5-3.5,6.4-3.5c4.6,0,7.5,2.8,7.5,7.3v10.1h-1.3v-10.1c0-3.6-2.2-6.1-6.3-6.1 c-3.7,0-6.3,2.7-6.3,6.3v10h-1.3V88.2h1.3V100.9z"/><path d="M282.6,91.2c0,0.5-0.4,0.9-1,0.9s-0.9-0.4-0.9-0.9c0-0.5,0.4-1,0.9-1S282.6,90.7,282.6,91.2z M282.3,114.8H281V97.6h1.3 V114.8z"/><path d="M300.9,98.7h-8.6V109c0,3.2,1.7,4.8,4.3,4.8c1.7,0,3.1-0.6,4.1-1.5l0.6,0.9c-1.2,1.1-2.8,1.7-4.9,1.7c-3.4,0-5.5-2-5.5-6 V98.7h-4.2v-1.2h4.2v-5.8h1.3v5.8h8.6V98.7z"/><path d="M321.1,106.1c0,0.2,0,0.4,0,0.6h-15.2c0.2,4.4,3.3,7.2,7.3,7.2c2.7,0,4.7-1.1,6.2-2.8l0.8,0.9c-2.2,2.5-4.7,3.1-7.1,3.1 c-5,0-8.6-3.6-8.6-8.8c0-5.1,3.7-8.8,8.5-8.8C317.5,97.4,321,101,321.1,106.1z M305.8,105.5h13.9c-0.2-4-3.1-6.9-6.7-6.9 C309.1,98.6,306.1,101.5,305.8,105.5z"/><path d="M340.3,100l-0.8,0.9c-1.4-1.4-3.3-2.3-5.5-2.3c-4.2,0-7.4,3.2-7.4,7.6c0,4.4,3.2,7.6,7.4,7.6c2.2,0,4.1-0.9,5.5-2.3 l0.8,0.9c-1.6,1.7-3.8,2.6-6.3,2.6c-5,0-8.7-3.8-8.7-8.8c0-5,3.7-8.8,8.7-8.8C336.5,97.4,338.7,98.3,340.3,100z"/><path d="M357.5,98.7h-8.6V109c0,3.2,1.7,4.8,4.3,4.8c1.7,0,3.1-0.6,4.1-1.5l0.6,0.9c-1.2,1.1-2.8,1.7-4.9,1.7c-3.4,0-5.5-2-5.5-6 V98.7h-4.2v-1.2h4.2v-5.8h1.3v5.8h8.6V98.7z"/><path d="M377.6,107.8c0,4.6-3.3,7.2-7.6,7.2s-7.6-2.6-7.6-7.2V97.6h1.3v10.1c0,3.9,2.6,6.1,6.3,6.1c3.8,0,6.3-2.3,6.3-6.1V97.6h1.3 V107.8z"/><path d="M394.5,98.1l-0.4,1.2c-0.9-0.5-2-0.7-3.1-0.7c-3.3,0-5.4,2.8-5.4,6.3v9.9h-1.3V97.6h1.3v3c1.1-1.9,2.9-3.2,5.5-3.2 C392.4,97.4,393.6,97.6,394.5,98.1z"/><path d="M413.5,106.1c0,0.2,0,0.4,0,0.6h-15.2c0.2,4.4,3.3,7.2,7.3,7.2c2.7,0,4.7-1.1,6.3-2.8l0.8,0.9c-2.2,2.5-4.7,3.1-7.1,3.1 c-5,0-8.6-3.6-8.6-8.8c0-5.1,3.7-8.8,8.5-8.8C409.9,97.4,413.4,101,413.5,106.1z M398.3,105.5h13.9c-0.2-4-3.1-6.9-6.7-6.9 C401.5,98.6,398.6,101.5,398.3,105.5z"/></g><g><path d="M92.9,133.3c2.3,0,3.5,1,3.5,2.8c0,1.7-1.3,2.8-3.3,2.8l3.2,4.1h-2l-3.1-4.1h-0.8v4.1h-1.6v-9.8H92.9z M90.5,134.8v2.8h2.4 c1.3,0,1.9-0.5,1.9-1.4c0-0.9-0.6-1.4-1.9-1.4H90.5z"/><path d="M104.1,139.8c0,0.2,0,0.4,0,0.5h-5c0.2,1.2,1,1.7,2,1.7c0.7,0,1.4-0.3,1.9-0.7l0.7,1c-0.8,0.7-1.7,0.9-2.8,0.9 c-2,0-3.4-1.4-3.4-3.5c0-2.1,1.4-3.5,3.3-3.5C102.8,136.3,104.1,137.7,104.1,139.8z M99.1,139.2h3.5c-0.2-1-0.8-1.7-1.7-1.7 C99.9,137.6,99.3,138.2,99.1,139.2z"/><path d="M110.9,137.3v-4.2h1.5v10.1h-1.5v-0.8c-0.5,0.6-1.2,1-2.1,1c-1.9,0-3.4-1.5-3.4-3.5c0-2.1,1.5-3.5,3.4-3.5 C109.7,136.3,110.4,136.7,110.9,137.3z M106.9,139.8c0,1.2,0.8,2.2,2,2.2c1.2,0,2-0.9,2-2.2c0-1.2-0.8-2.2-2-2.2 C107.7,137.6,106.9,138.6,106.9,139.8z"/><path d="M120.8,140.3c0,2.1-1.5,3-3.1,3c-1.6,0-3.1-0.9-3.1-3v-3.9h1.5v3.7c0,1.3,0.7,1.8,1.6,1.8s1.6-0.5,1.6-1.8v-3.7h1.5V140.3z"/><path d="M129.3,138.9v4.2h-1.5v-3.7c0-1.1-0.6-1.8-1.6-1.8c-0.9,0-1.7,0.6-1.7,1.8v3.7H123v-6.7h1.5v0.8c0.5-0.8,1.4-1,2.1-1 C128.1,136.3,129.3,137.4,129.3,138.9z"/><path d="M136.5,137.3v-4.2h1.5v10.1h-1.5v-0.8c-0.5,0.6-1.2,1-2.1,1c-1.9,0-3.4-1.5-3.4-3.5c0-2.1,1.5-3.5,3.4-3.5 C135.3,136.3,136,136.7,136.5,137.3z M132.5,139.8c0,1.2,0.8,2.2,2,2.2c1.2,0,2-0.9,2-2.2c0-1.2-0.8-2.2-2-2.2 C133.3,137.6,132.5,138.6,132.5,139.8z"/><path d="M146.7,143.1h-1.5v-0.8c-0.5,0.6-1.2,1-2.1,1c-1.9,0-3.4-1.5-3.4-3.5c0-2.1,1.5-3.5,3.4-3.5c1,0,1.6,0.4,2.1,1v-0.8h1.5 V143.1z M141.2,139.8c0,1.2,0.8,2.2,2,2.2c1.2,0,2-0.9,2-2.2c0-1.2-0.8-2.2-2-2.2C142,137.6,141.2,138.6,141.2,139.8z"/><path d="M155.2,138.9v4.2h-1.5v-3.7c0-1.1-0.6-1.8-1.6-1.8c-0.9,0-1.7,0.6-1.7,1.8v3.7H149v-6.7h1.5v0.8c0.5-0.8,1.4-1,2.1-1 C154.1,136.3,155.2,137.4,155.2,138.9z"/><path d="M161.9,137.8h-2.6v2.9c0,0.9,0.5,1.3,1.1,1.3c0.5,0,1-0.2,1.4-0.5l0.6,1.2c-0.5,0.4-1.2,0.7-2.1,0.7 c-1.5,0-2.4-0.8-2.4-2.6v-2.9h-1.3v-1.3h1.3v-2h1.5v2h2.6V137.8z"/><path d="M176.1,143.1h-1.7l-1-2.5h-4.4l-1,2.5h-1.6l3.9-9.8h2L176.1,143.1z M169.5,139.1h3.3l-1.6-4.2L169.5,139.1z"/><path d="M181.9,136.5l-0.4,1.4c-0.3-0.2-0.8-0.2-1.1-0.2c-0.9,0-1.6,0.7-1.6,1.8v3.7h-1.5v-6.7h1.5v0.8c0.4-0.6,1.1-0.9,1.9-0.9 C181.3,136.3,181.6,136.3,181.9,136.5z"/><path d="M187.9,136.5l-0.4,1.4c-0.3-0.2-0.8-0.2-1.1-0.2c-0.9,0-1.6,0.7-1.6,1.8v3.7h-1.5v-6.7h1.5v0.8c0.4-0.6,1.1-0.9,1.9-0.9 C187.3,136.3,187.6,136.3,187.9,136.5z"/><path d="M195.6,143.1h-1.5v-0.8c-0.5,0.6-1.2,1-2.1,1c-1.9,0-3.4-1.5-3.4-3.5c0-2.1,1.5-3.5,3.4-3.5c1,0,1.6,0.4,2.1,1v-0.8h1.5 V143.1z M190.2,139.8c0,1.2,0.8,2.2,2,2.2c1.2,0,2-0.9,2-2.2c0-1.2-0.8-2.2-2-2.2C190.9,137.6,190.2,138.6,190.2,139.8z"/><path d="M199.1,146h-1.6l2.4-4.2l-3-5.3h1.6l2.2,3.9l2.1-3.9h1.6L199.1,146z"/><path d="M215.8,139.8c0,2-1.5,3.5-3.6,3.5c-2.1,0-3.6-1.5-3.6-3.5c0-2,1.5-3.5,3.6-3.5C214.3,136.3,215.8,137.8,215.8,139.8z M210.1,139.8c0,1.3,0.9,2.2,2.1,2.2c1.2,0,2.1-0.9,2.1-2.2c0-1.3-0.9-2.2-2.1-2.2C211,137.6,210.1,138.5,210.1,139.8z"/><path d="M221.9,137.8h-2.3v5.4h-1.5v-5.4h-1.3v-1.3h1.3v-1.1c0-1.3,0.7-2.4,2.2-2.4c0.8,0,1.4,0.2,1.9,0.5l-0.5,1.2 c-0.3-0.2-0.8-0.4-1.3-0.4c-0.6,0-0.9,0.4-0.9,1v1.1h2.3V137.8z"/><path d="M231.2,133.3c3.1,0,5.1,1.9,5.1,4.9s-2,4.9-5.1,4.9h-3.9v-9.8H231.2z M228.9,134.8v6.8h2.3c2.3,0,3.4-1.4,3.4-3.4 c0-2-1.1-3.4-3.4-3.4H228.9z"/><path d="M240,134.1c0,0.6-0.5,1-1,1s-1-0.4-1-1s0.4-1,1-1S240,133.5,240,134.1z M239.8,143.1h-1.5v-6.7h1.5V143.1z"/><path d="M246.6,138.1c-0.4-0.3-1.2-0.6-2.1-0.6c-0.8,0-1.3,0.3-1.3,0.8c0,0.5,0.5,0.6,1.1,0.7l0.7,0.1c1.5,0.2,2.3,0.8,2.3,2 c0,1.3-1.1,2.2-3.1,2.2c-0.7,0-1.9-0.1-2.9-0.9l0.7-1.1c0.5,0.4,1.1,0.7,2.2,0.7c1,0,1.5-0.3,1.5-0.8c0-0.4-0.4-0.6-1.2-0.7 l-0.7-0.1c-1.5-0.2-2.3-0.9-2.3-2c0-1.3,1.1-2.2,2.8-2.2c1.1,0,2,0.3,2.7,0.7L246.6,138.1z"/><path d="M253.7,137.8h-2.6v2.9c0,0.9,0.5,1.3,1.1,1.3c0.5,0,1-0.2,1.4-0.5l0.6,1.2c-0.5,0.4-1.2,0.7-2.1,0.7 c-1.5,0-2.4-0.8-2.4-2.6v-2.9h-1.3v-1.3h1.3v-2h1.5v2h2.6V137.8z"/><path d="M260,136.5l-0.3,1.4c-0.3-0.2-0.8-0.2-1.1-0.2c-0.9,0-1.6,0.7-1.6,1.8v3.7h-1.5v-6.7h1.5v0.8c0.4-0.6,1.1-0.9,1.9-0.9 C259.3,136.3,259.7,136.3,260,136.5z"/><path d="M263.3,134.1c0,0.6-0.5,1-1,1s-1-0.4-1-1s0.4-1,1-1S263.3,133.5,263.3,134.1z M263,143.1h-1.5v-6.7h1.5V143.1z"/><path d="M272.2,139.8c0,2.1-1.5,3.5-3.4,3.5c-1,0-1.6-0.4-2.1-1v0.8h-1.5v-10.1h1.5v4.2c0.5-0.6,1.1-1,2.1-1 C270.7,136.3,272.2,137.7,272.2,139.8z M266.6,139.8c0,1.2,0.8,2.2,2,2.2c1.3,0,2-1,2-2.2c0-1.2-0.8-2.2-2-2.2 C267.4,137.6,266.6,138.6,266.6,139.8z"/><path d="M280.1,140.3c0,2.1-1.5,3-3.1,3c-1.6,0-3.1-0.9-3.1-3v-3.9h1.5v3.7c0,1.3,0.7,1.8,1.6,1.8c0.9,0,1.6-0.5,1.6-1.8v-3.7h1.5 V140.3z"/><path d="M286.9,137.8h-2.6v2.9c0,0.9,0.5,1.3,1.1,1.3c0.5,0,1-0.2,1.4-0.5l0.6,1.2c-0.5,0.4-1.2,0.7-2.1,0.7 c-1.5,0-2.4-0.8-2.4-2.6v-2.9h-1.3v-1.3h1.3v-2h1.5v2h2.6V137.8z"/><path d="M294.7,139.8c0,0.2,0,0.4,0,0.5h-5c0.2,1.2,1,1.7,2,1.7c0.7,0,1.4-0.3,1.9-0.7l0.7,1c-0.8,0.7-1.7,0.9-2.8,0.9 c-2,0-3.4-1.4-3.4-3.5c0-2.1,1.4-3.5,3.3-3.5C293.5,136.3,294.7,137.7,294.7,139.8z M289.8,139.2h3.5c-0.2-1-0.8-1.7-1.7-1.7 C290.5,137.6,289.9,138.2,289.8,139.2z"/><path d="M301.5,137.3v-4.2h1.5v10.1h-1.5v-0.8c-0.5,0.6-1.2,1-2.1,1c-1.9,0-3.4-1.5-3.4-3.5c0-2.1,1.5-3.5,3.4-3.5 C300.4,136.3,301.1,136.7,301.5,137.3z M297.6,139.8c0,1.2,0.8,2.2,2,2.2c1.2,0,2-0.9,2-2.2c0-1.2-0.8-2.2-2-2.2 C298.3,137.6,297.6,138.6,297.6,139.8z"/><path d="M310.8,143.1h-1.6v-9.8h1.6V143.1z"/><path d="M319.6,138.9v4.2h-1.5v-3.7c0-1.1-0.6-1.8-1.6-1.8c-0.9,0-1.7,0.6-1.7,1.8v3.7h-1.5v-6.7h1.5v0.8c0.5-0.8,1.4-1,2.1-1 C318.4,136.3,319.6,137.4,319.6,138.9z"/><path d="M326.8,137.3v-4.2h1.5v10.1h-1.5v-0.8c-0.5,0.6-1.2,1-2.1,1c-1.9,0-3.4-1.5-3.4-3.5c0-2.1,1.5-3.5,3.4-3.5 C325.6,136.3,326.3,136.7,326.8,137.3z M322.8,139.8c0,1.2,0.8,2.2,2,2.2c1.2,0,2-0.9,2-2.2c0-1.2-0.8-2.2-2-2.2 C323.6,137.6,322.8,138.6,322.8,139.8z"/><path d="M336.5,139.8c0,0.2,0,0.4,0,0.5h-5c0.2,1.2,1,1.7,2,1.7c0.7,0,1.4-0.3,1.9-0.7l0.7,1c-0.8,0.7-1.7,0.9-2.8,0.9 c-2,0-3.4-1.4-3.4-3.5c0-2.1,1.4-3.5,3.3-3.5C335.2,136.3,336.5,137.7,336.5,139.8z M331.6,139.2h3.5c-0.2-1-0.8-1.7-1.7-1.7 C332.3,137.6,331.7,138.2,331.6,139.2z"/><path d="M345.3,139.8c0,2.1-1.5,3.5-3.4,3.5c-1,0-1.6-0.4-2.1-1v3.6h-1.5v-9.5h1.5v0.8c0.5-0.6,1.1-1,2.1-1 C343.8,136.3,345.3,137.7,345.3,139.8z M339.7,139.8c0,1.2,0.8,2.2,2,2.2c1.3,0,2-1,2-2.2c0-1.2-0.8-2.2-2-2.2 C340.5,137.6,339.7,138.6,339.7,139.8z"/><path d="M353.1,139.8c0,0.2,0,0.4,0,0.5h-5c0.2,1.2,1,1.7,2,1.7c0.7,0,1.4-0.3,1.9-0.7l0.7,1c-0.8,0.7-1.7,0.9-2.8,0.9 c-2,0-3.4-1.4-3.4-3.5c0-2.1,1.4-3.5,3.3-3.5C351.8,136.3,353.1,137.7,353.1,139.8z M348.1,139.2h3.5c-0.2-1-0.8-1.7-1.7-1.7 C348.9,137.6,348.3,138.2,348.1,139.2z"/><path d="M361.2,138.9v4.2h-1.5v-3.7c0-1.1-0.6-1.8-1.6-1.8c-0.9,0-1.7,0.6-1.7,1.8v3.7h-1.5v-6.7h1.5v0.8c0.5-0.8,1.4-1,2.1-1 C360,136.3,361.2,137.4,361.2,138.9z"/><path d="M368.4,137.3v-4.2h1.5v10.1h-1.5v-0.8c-0.5,0.6-1.2,1-2.1,1c-1.9,0-3.4-1.5-3.4-3.5c0-2.1,1.5-3.5,3.4-3.5 C367.2,136.3,367.9,136.7,368.4,137.3z M364.4,139.8c0,1.2,0.8,2.2,2,2.2c1.2,0,2-0.9,2-2.2c0-1.2-0.8-2.2-2-2.2 C365.2,137.6,364.4,138.6,364.4,139.8z"/><path d="M378.2,139.8c0,0.2,0,0.4,0,0.5h-5c0.2,1.2,1,1.7,2,1.7c0.7,0,1.4-0.3,1.9-0.7l0.7,1c-0.8,0.7-1.7,0.9-2.8,0.9 c-2,0-3.4-1.4-3.4-3.5c0-2.1,1.4-3.5,3.3-3.5C376.9,136.3,378.1,137.7,378.2,139.8z M373.2,139.2h3.5c-0.2-1-0.8-1.7-1.7-1.7 C373.9,137.6,373.3,138.2,373.2,139.2z"/><path d="M386.2,138.9v4.2h-1.5v-3.7c0-1.1-0.6-1.8-1.6-1.8c-0.9,0-1.7,0.6-1.7,1.8v3.7H380v-6.7h1.5v0.8c0.5-0.8,1.4-1,2.1-1 C385.1,136.3,386.2,137.4,386.2,138.9z"/><path d="M392.9,137.8h-2.6v2.9c0,0.9,0.5,1.3,1.1,1.3c0.5,0,1-0.2,1.4-0.5l0.6,1.2c-0.5,0.4-1.2,0.7-2.1,0.7 c-1.5,0-2.4-0.8-2.4-2.6v-2.9h-1.3v-1.3h1.3v-2h1.5v2h2.6V137.8z"/><path d="M408.4,138.2c0,2.9-2.1,5.1-5.1,5.1c-3,0-5.1-2.2-5.1-5.1c0-2.9,2.1-5.1,5.1-5.1C406.3,133.2,408.4,135.3,408.4,138.2z M399.8,138.2c0,2.1,1.5,3.6,3.5,3.6c2,0,3.5-1.4,3.5-3.6c0-2.1-1.5-3.6-3.5-3.6C401.3,134.7,399.8,136.1,399.8,138.2z"/><path d="M417.3,139.8c0,2.1-1.5,3.5-3.4,3.5c-1,0-1.6-0.4-2.1-1v0.8h-1.5v-10.1h1.5v4.2c0.5-0.6,1.1-1,2.1-1 C415.8,136.3,417.3,137.7,417.3,139.8z M411.7,139.8c0,1.2,0.8,2.2,2,2.2c1.3,0,2-1,2-2.2c0-1.2-0.8-2.2-2-2.2 C412.5,137.6,411.7,138.6,411.7,139.8z"/><path d="M420.6,144c0,1.4-0.8,2.1-2,2.1c-0.3,0-0.7-0.1-1-0.2l0.3-1.3c0.2,0.1,0.4,0.1,0.5,0.1c0.3,0,0.6-0.2,0.6-0.8v-7.5h1.5V144 z M420.9,134.1c0,0.6-0.5,1-1,1s-1-0.4-1-1s0.4-1,1-1S420.9,133.5,420.9,134.1z"/><path d="M428.9,139.8c0,0.2,0,0.4,0,0.5h-5c0.2,1.2,1,1.7,2,1.7c0.7,0,1.4-0.3,1.9-0.7l0.7,1c-0.8,0.7-1.7,0.9-2.8,0.9 c-2,0-3.4-1.4-3.4-3.5c0-2.1,1.4-3.5,3.3-3.5C427.6,136.3,428.9,137.7,428.9,139.8z M423.9,139.2h3.5c-0.2-1-0.8-1.7-1.7-1.7 C424.7,137.6,424.1,138.2,423.9,139.2z"/><path d="M436.3,137.3l-0.9,1c-0.5-0.4-1-0.7-1.6-0.7c-1.1,0-2,0.9-2,2.2c0,1.3,0.9,2.2,2,2.2c0.6,0,1.2-0.3,1.6-0.7l0.9,1 c-0.6,0.7-1.5,1.1-2.5,1.1c-2.1,0-3.5-1.5-3.5-3.5c0-2,1.4-3.5,3.5-3.5C434.8,136.3,435.7,136.6,436.3,137.3z"/><path d="M442.6,137.8H440v2.9c0,0.9,0.5,1.3,1.1,1.3c0.5,0,1-0.2,1.4-0.5l0.6,1.2c-0.5,0.4-1.2,0.7-2.1,0.7c-1.5,0-2.4-0.8-2.4-2.6 v-2.9h-1.3v-1.3h1.3v-2h1.5v2h2.6V137.8z"/><path d="M454.7,135.5c-0.8-0.5-1.8-0.8-2.8-0.8c-1.3,0-2.2,0.6-2.2,1.5c0,0.8,0.8,1.1,2,1.3l0.7,0.1c1.6,0.2,3.2,0.9,3.2,2.7 c0,2-1.8,3.1-3.9,3.1c-1.3,0-2.9-0.4-3.9-1.3l0.9-1.3c0.7,0.6,1.9,1.1,3.1,1.1c1.3,0,2.3-0.5,2.3-1.4c0-0.8-0.8-1.1-2.2-1.3 l-0.8-0.1c-1.5-0.2-2.9-0.9-2.9-2.7c0-2,1.7-3.1,3.9-3.1c1.4,0,2.6,0.4,3.5,1.1L454.7,135.5z"/><path d="M462.1,137.8h-2.6v2.9c0,0.9,0.5,1.3,1.1,1.3c0.5,0,1-0.2,1.4-0.5l0.6,1.2c-0.5,0.4-1.2,0.7-2.1,0.7 c-1.5,0-2.4-0.8-2.4-2.6v-2.9h-1.3v-1.3h1.3v-2h1.5v2h2.6V137.8z"/><path d="M470.6,139.8c0,2-1.5,3.5-3.6,3.5s-3.6-1.5-3.6-3.5c0-2,1.5-3.5,3.6-3.5S470.6,137.8,470.6,139.8z M464.9,139.8 c0,1.3,0.9,2.2,2.1,2.2c1.2,0,2.1-0.9,2.1-2.2c0-1.3-0.9-2.2-2.1-2.2C465.8,137.6,464.9,138.5,464.9,139.8z"/><path d="M476.9,136.5l-0.3,1.4c-0.3-0.2-0.8-0.2-1.1-0.2c-0.9,0-1.6,0.7-1.6,1.8v3.7h-1.5v-6.7h1.5v0.8c0.4-0.6,1.1-0.9,1.9-0.9 C476.2,136.3,476.6,136.3,476.9,136.5z"/><path d="M484.1,139.8c0,0.2,0,0.4,0,0.5h-5c0.2,1.2,1,1.7,2,1.7c0.7,0,1.4-0.3,1.9-0.7l0.7,1c-0.8,0.7-1.7,0.9-2.8,0.9 c-2,0-3.4-1.4-3.4-3.5c0-2.1,1.4-3.5,3.3-3.5C482.8,136.3,484.1,137.7,484.1,139.8z M479.2,139.2h3.5c-0.2-1-0.8-1.7-1.7-1.7 C479.9,137.6,479.3,138.2,479.2,139.2z"/></g></svg>